name analog
datacolumns 19
datarows 38
range 0.2495 0.268
endheader
time	ground_force_vx	ground_force_vy	ground_force_vz	ground_force_px	ground_force_py	ground_force_pz	l_ground_force_vx	l_ground_force_vy	l_ground_force_vz	l_ground_force_px	l_ground_force_py	l_ground_force_pz	ground_torque_x	ground_torque_y	ground_torque_z	l_ground_torque_x	l_ground_torque_y	l_ground_torque_z
0.2495	-0.0	-0.0	-0.0	-2.0237886905670166	18.94273376464844	-244.13839721679688	7.717838287353516	-4.899509906768799	-537.6934814453125	-0.0	-0.0	-0.0	-0.0	-0.0	-0.0	160755.34375	-26039.734375	1462.4639892578125
0.25	-0.0	-0.0	-0.0	-2.2914955615997314	19.402475357055664	-242.98779296875	7.7597270011901855	-4.987719535827637	-539.2000122070312	-0.0	-0.0	-0.0	-0.0	-0.0	-0.0	161310.171875	-26349.39453125	1645.1121826171875
0.2505	-0.0	-0.0	-0.0	-2.414128541946411	19.14908790588379	-241.0560760498047	7.390865325927734	-5.368671417236328	-541.88330078125	-0.0	-0.0	-0.0	-0.0	-0.0	-0.0	161840.484375	-26467.212890625	1793.0546875
0.251	-0.0	-0.0	-0.0	-2.188493013381958	19.285654067993164	-236.9061584472656	7.895259857177734	-6.135706424713135	-544.436767578125	-0.0	-0.0	-0.0	-0.0	-0.0	-0.0	162788.25	-26595.060546875	1885.052490234375
0.2515	-0.0	-0.0	-0.0	-2.2917022705078125	18.669872283935547	-236.38731384277344	7.983970642089844	-6.734521865844727	-548.3535766601562	-0.0	-0.0	-0.0	-0.0	-0.0	-0.0	163247.078125	-26607.484375	2022.97802734375
0.252	-0.0	-0.0	-0.0	-2.704030752182007	18.697481155395508	-230.4378967285156	8.5162353515625	-7.534886837005615	-550.88427734375	-0.0	-0.0	-0.0	-0.0	-0.0	-0.0	163932.578125	-26702.8984375	2135.328369140625
0.2525	-0.0	-0.0	-0.0	-2.3194732666015625	18.25164031982422	-229.1590576171875	8.660126686096191	-8.567203521728516	-554.584716796875	-0.0	-0.0	-0.0	-0.0	-0.0	-0.0	165164.296875	-26926.763671875	2441.047119140625
0.253	-0.0	-0.0	-0.0	-2.703880071640014	18.44999313354492	-223.1263885498047	8.823640823364258	-8.771241188049316	-558.4559326171875	-0.0	-0.0	-0.0	-0.0	-0.0	-0.0	165823.765625	-26979.962890625	2566.417236328125
0.2535	-0.0	-0.0	-0.0	-2.820512533187866	18.09347152709961	-218.99819946289065	9.574386596679688	-9.674399375915527	-562.296142578125	-0.0	-0.0	-0.0	-0.0	-0.0	-0.0	166744.78125	-27379.94921875	2790.638916015625
0.254	-0.0	-0.0	-0.0	-3.5547003746032715	17.84661293029785	-214.76068115234372	9.983231544494627	-9.634191513061523	-564.9015502929688	-0.0	-0.0	-0.0	-0.0	-0.0	-0.0	167871.46875	-27160.0	3046.31005859375
0.2545	-0.0	-0.0	-0.0	-3.4720938205718994	17.66860008239746	-211.5006103515625	10.099370956420898	-10.428825378417969	-568.4188232421875	-0.0	-0.0	-0.0	-0.0	-0.0	-0.0	168766.046875	-27394.35546875	3048.534423828125
0.255	-0.0	-0.0	-0.0	-3.876986026763916	17.153934478759766	-205.604736328125	9.962849617004396	-10.775245666503906	-572.3131103515625	-0.0	-0.0	-0.0	-0.0	-0.0	-0.0	169808.703125	-27307.013671875	3043.74462890625
0.2555	-0.0	-0.0	-0.0	-4.220128059387207	17.00279998779297	-203.6230926513672	10.105876922607422	-10.856446266174316	-576.93359375	-0.0	-0.0	-0.0	-0.0	-0.0	-0.0	170862.640625	-27382.921875	3130.63623046875
0.256	-0.0	-0.0	-0.0	-4.782474040985107	16.797216415405273	-201.4813232421875	10.311384201049805	-11.393497467041016	-578.94677734375	-0.0	-0.0	-0.0	-0.0	-0.0	-0.0	171630.078125	-27460.74609375	3244.819580078125
0.2565	-0.0	-0.0	-0.0	-5.544593334197998	16.378509521484375	-197.213134765625	9.97616195678711	-11.406956672668455	-583.485595703125	-0.0	-0.0	-0.0	-0.0	-0.0	-0.0	172802.25	-27594.572265625	3209.892333984375
0.257	-0.0	-0.0	-0.0	-5.398557662963867	16.537750244140625	-192.4295654296875	10.52960205078125	-11.577874183654783	-587.11376953125	-0.0	-0.0	-0.0	-0.0	-0.0	-0.0	173864.796875	-27625.04296875	3290.147705078125
0.2575	-0.0	-0.0	-0.0	-5.776853084564209	15.954341888427734	-188.2982482910156	10.672200202941896	-11.508606910705566	-592.3729248046875	-0.0	-0.0	-0.0	-0.0	-0.0	-0.0	175362.96875	-28063.486328125	3416.031494140625
0.258	-0.0	-0.0	-0.0	-6.539244174957275	15.548969268798828	-184.05995178222656	11.137311935424805	-11.481819152832031	-597.5568237304688	-0.0	-0.0	-0.0	-0.0	-0.0	-0.0	176781.4375	-28385.45703125	3523.30517578125
0.2585	-0.0	-0.0	-0.0	-7.047630310058594	14.746711730957031	-179.62777709960938	11.279657363891602	-11.58845329284668	-603.6304321289062	-0.0	-0.0	-0.0	-0.0	-0.0	-0.0	178564.0625	-28658.10546875	3790.31884765625
0.259	-0.0	-0.0	-0.0	-7.507055759429932	14.982872009277344	-176.43113708496094	12.037965774536133	-11.998456954956056	-610.3170166015625	-0.0	-0.0	-0.0	-0.0	-0.0	-0.0	180353.953125	-28765.83984375	4085.75830078125
0.2595	-0.0	-0.0	-0.0	-7.408608436584473	14.594871520996094	-171.7346649169922	12.18000316619873	-11.58339500427246	-614.6116333007812	-0.0	-0.0	-0.0	-0.0	-0.0	-0.0	181892.046875	-29329.7890625	4188.35009765625
0.26	-0.0	-0.0	-0.0	-7.867773532867432	14.220977783203123	-165.39356994628906	12.406224250793455	-11.508273124694824	-620.4592895507812	-0.0	-0.0	-0.0	-0.0	-0.0	-0.0	183671.203125	-29324.451171875	4253.7333984375
0.2605	-0.0	-0.0	-0.0	-8.309846878051758	13.561079025268556	-161.29815673828125	12.76110553741455	-11.711221694946287	-626.9878540039062	-0.0	-0.0	-0.0	-0.0	-0.0	-0.0	185132.59375	-29841.357421875	4578.79296875
0.261	-0.0	-0.0	-0.0	-8.260294914245605	13.191299438476562	-157.80552673339844	13.457618713378906	-11.658462524414062	-630.9169921875	-0.0	-0.0	-0.0	-0.0	-0.0	-0.0	186687.234375	-30209.078125	4825.4365234375
0.2615	-0.0	-0.0	-0.0	-9.036654472351074	12.682886123657228	-151.1610107421875	14.088327407836914	-12.113187789916992	-636.154296875	-0.0	-0.0	-0.0	-0.0	-0.0	-0.0	188234.46875	-30323.796875	5067.45166015625
0.262	-0.0	-0.0	-0.0	-9.317401885986328	12.18752384185791	-146.55787658691406	14.220022201538086	-12.89496612548828	-641.5984497070312	-0.0	-0.0	-0.0	-0.0	-0.0	-0.0	189726.59375	-30672.734375	5312.3046875
0.2625	-0.0	-0.0	-0.0	-9.88923454284668	11.738972663879396	-140.5136260986328	14.535457611083984	-13.99398708343506	-648.2713012695312	-0.0	-0.0	-0.0	-0.0	-0.0	-0.0	190933.6875	-30877.58984375	5431.943359375
0.263	-0.0	-0.0	-0.0	-9.928555488586426	11.40869140625	-135.81875610351562	15.153667449951172	-14.334145545959473	-651.579345703125	-0.0	-0.0	-0.0	-0.0	-0.0	-0.0	192507.6875	-31124.78125	5791.6240234375
0.2635	-0.0	-0.0	-0.0	-10.13305377960205	11.091334342956545	-129.2549285888672	15.688762664794922	-15.708271026611328	-657.55517578125	-0.0	-0.0	-0.0	-0.0	-0.0	-0.0	193900.515625	-31410.1640625	6156.34912109375
0.264	-0.0	-0.0	-0.0	-10.642107963562012	10.415240287780762	-121.493896484375	16.260089874267578	-15.96265983581543	-661.7028198242188	-0.0	-0.0	-0.0	-0.0	-0.0	-0.0	195115.375	-31724.888671875	6331.0849609375
0.2645	-0.0	-0.0	-0.0	-10.794471740722656	9.52397346496582	-117.90382385253906	16.565059661865234	-16.591562271118164	-668.5743408203125	-0.0	-0.0	-0.0	-0.0	-0.0	-0.0	196681.3125	-31873.7109375	6653.0087890625
0.265	-0.0	-0.0	-0.0	-10.603087425231934	8.96484661102295	-111.34825134277344	16.816219329833984	-16.931991577148438	-670.2766723632812	-0.0	-0.0	-0.0	-0.0	-0.0	-0.0	197607.734375	-32182.884765625	6910.72412109375
0.2655	-0.0	-0.0	-0.0	-10.197118759155272	8.697304725646973	-105.85163879394533	17.385684967041016	-17.033235549926758	-673.2723388671875	-0.0	-0.0	-0.0	-0.0	-0.0	-0.0	198982.421875	-32291.275390625	7050.8173828125
0.266	-0.0	-0.0	-0.0	-10.437629699707031	8.237622261047363	-101.2095718383789	17.64057731628418	-17.58882713317871	-679.0039672851562	-0.0	-0.0	-0.0	-0.0	-0.0	-0.0	199866.78125	-32376.1640625	7114.99609375
0.2665	-0.0	-0.0	-0.0	-10.526840209960938	7.397823333740234	-96.01403045654295	17.90673828125	-17.335451126098633	-683.886962890625	-0.0	-0.0	-0.0	-0.0	-0.0	-0.0	201100.8125	-32534.68359375	7331.05615234375
0.267	-0.0	-0.0	-0.0	-10.399162292480469	6.760553359985352	-92.12703704833984	18.23692321777344	-17.588762283325195	-687.6810302734375	-0.0	-0.0	-0.0	-0.0	-0.0	-0.0	202625.453125	-32665.33984375	7564.2705078125
0.2675	-0.0	-0.0	-0.0	-10.208069801330566	5.933417320251465	-88.44570922851562	18.66691398620605	-17.538532257080078	-692.0185546875	-0.0	-0.0	-0.0	-0.0	-0.0	-0.0	203937.0625	-33038.7265625	7670.6806640625
0.268	-0.0	-0.0	-0.0	-10.437629699707031	5.398806095123291	-84.10733032226562	18.93315696716309	-17.61406135559082	-696.3086547851562	-0.0	-0.0	-0.0	-0.0	-0.0	-0.0	205311.546875	-32807.26171875	7683.6103515625
